<svg id="Capa_1" enable-background="new 0 0 512 512" height="512" viewBox="0 0 512 512" width="512" xmlns="http://www.w3.org/2000/svg"><g><g><path d="m447.871 235.958c0-4.143-3.357-7.5-7.5-7.5s-7.5 3.357-7.5 7.5v20.04c0 4.143 3.357 7.5 7.5 7.5s7.5-3.357 7.5-7.5z"/><path d="m479.936 235.958c0-4.143-3.357-7.5-7.5-7.5s-7.5 3.357-7.5 7.5v20.04c0 4.143 3.357 7.5 7.5 7.5s7.5-3.357 7.5-7.5z"/><path d="m447.871 288.062c0-4.143-3.357-7.5-7.5-7.5s-7.5 3.357-7.5 7.5v20.04c0 4.143 3.357 7.5 7.5 7.5s7.5-3.357 7.5-7.5z"/><path d="m479.936 288.062c0-4.143-3.357-7.5-7.5-7.5s-7.5 3.357-7.5 7.5v20.04c0 4.143 3.357 7.5 7.5 7.5s7.5-3.357 7.5-7.5z"/><path d="m440.371 332.667c-4.143 0-7.5 3.357-7.5 7.5v20.041c0 4.143 3.357 7.5 7.5 7.5s7.5-3.357 7.5-7.5v-20.041c0-4.143-3.357-7.5-7.5-7.5z"/><path d="m472.436 332.667c-4.143 0-7.5 3.357-7.5 7.5v20.041c0 4.143 3.357 7.5 7.5 7.5s7.5-3.357 7.5-7.5v-20.041c0-4.143-3.358-7.5-7.5-7.5z"/><path d="m504.5 362.458c4.143 0 7.5-3.357 7.5-7.5v-171.11c0-4.143-3.357-7.5-7.5-7.5h-88.69v-33.58c0-4.143-3.357-7.5-7.5-7.5h-24.445l-9.199-73.589c-.47-3.753-3.66-6.569-7.442-6.569h-27.57v-45.608c0-4.143-3.357-7.5-7.5-7.5s-7.5 3.357-7.5 7.5v45.607h-27.57c-3.782 0-6.973 2.816-7.442 6.569l-9.199 73.589h-16.943v-35.579c0-4.143-3.357-7.5-7.5-7.5h-4.524v-24.569c0-4.143-3.357-7.5-7.5-7.5h-12.54v-12.54c0-4.143-3.357-7.5-7.5-7.5s-7.5 3.357-7.5 7.5v12.54h-25.081v-12.54c0-4.143-3.357-7.5-7.5-7.5s-7.5 3.357-7.5 7.5v12.54h-25.08v-12.54c0-4.143-3.357-7.5-7.5-7.5s-7.5 3.357-7.5 7.5v12.54h-25.081v-12.54c0-4.143-3.357-7.5-7.5-7.5s-7.5 3.357-7.5 7.5v12.54h-12.54c-4.143 0-7.5 3.357-7.5 7.5v24.569h-4.524c-4.143 0-7.5 3.357-7.5 7.5v26.22c0 4.143 3.357 7.5 7.5 7.5s7.5-3.357 7.5-7.5v-18.72h169.37v164.782c-33.768 3.745-60.121 32.445-60.121 67.195v35.583h-1.409c-10.272 0-18.63 7.859-18.63 17.52v40.601h-89.21v-271.96c0-4.143-3.357-7.5-7.5-7.5s-7.5 3.357-7.5 7.5v15.444h-56.63c-4.143 0-7.5 3.357-7.5 7.5v256.517c0 4.143 3.357 7.5 7.5 7.5l160.84-.001v4.99c0 4.143 3.357 7.5 7.5 7.5s7.5-3.357 7.5-7.5v-60.591c0-1.191 1.491-2.52 3.63-2.52h138.06c2.139 0 3.63 1.328 3.63 2.52v100.211c0 1.191-1.491 2.52-3.63 2.52h-138.06c-2.139 0-3.63-1.328-3.63-2.52v-4.62c0-4.143-3.357-7.5-7.5-7.5s-7.5 3.357-7.5 7.5v4.62c0 9.66 8.357 17.52 18.63 17.52h138.06c10.272 0 18.63-7.859 18.63-17.52v-44.61h160.84c4.143 0 7.5-3.357 7.5-7.5v-50.41c0-4.143-3.357-7.5-7.5-7.5s-7.5 3.357-7.5 7.5v42.91h-81.19v-241.521h81.19v163.61c0 4.143 3.357 7.5 7.5 7.5zm-440.371 70.411h-49.129v-241.516h49.129zm239.575-362.76h56.898l8.145 65.158h-73.189zm-212.551 5.01h145.322v17.069h-145.322zm112.226 264.046c0-29.016 23.605-52.621 52.621-52.621s52.621 23.605 52.621 52.621v34.585h-17.064v-34.585c0-19.592-15.929-35.533-35.518-35.555-.013 0-.026-.002-.039-.002s-.026.002-.039.002c-19.589.021-35.518 15.962-35.518 35.555v34.585h-17.064zm60.121-19.119c7.632 3.005 13.057 10.433 13.057 19.119v35.583h-13.057zm-28.057 19.119c0-8.686 5.424-16.114 13.057-19.119v54.702h-13.057zm89.587 35.583h-1.409v-35.583c0-34.75-26.353-63.451-60.121-67.195v-121.702h137.31v282.601h-57.15v-40.601c0-9.661-8.357-17.52-18.63-17.52z"/><path d="m39.564 263.498c4.143 0 7.5-3.357 7.5-7.5v-20.04c0-4.143-3.357-7.5-7.5-7.5s-7.5 3.357-7.5 7.5v20.04c0 4.143 3.358 7.5 7.5 7.5z"/><path d="m39.564 315.603c4.143 0 7.5-3.357 7.5-7.5v-20.04c0-4.143-3.357-7.5-7.5-7.5s-7.5 3.357-7.5 7.5v20.04c0 4.142 3.358 7.5 7.5 7.5z"/><path d="m39.564 367.708c4.143 0 7.5-3.357 7.5-7.5v-20.041c0-4.143-3.357-7.5-7.5-7.5s-7.5 3.357-7.5 7.5v20.041c0 4.143 3.358 7.5 7.5 7.5z"/><path d="m223.936 159.288c4.143 0 7.5-3.357 7.5-7.5v-20.04c0-4.143-3.357-7.5-7.5-7.5s-7.5 3.357-7.5 7.5v20.04c0 4.143 3.357 7.5 7.5 7.5z"/><path d="m103.693 159.288c4.143 0 7.5-3.357 7.5-7.5v-20.04c0-4.143-3.357-7.5-7.5-7.5s-7.5 3.357-7.5 7.5v20.04c0 4.143 3.358 7.5 7.5 7.5z"/><path d="m143.774 159.288c4.143 0 7.5-3.357 7.5-7.5v-20.04c0-4.143-3.357-7.5-7.5-7.5s-7.5 3.357-7.5 7.5v20.04c0 4.143 3.358 7.5 7.5 7.5z"/><path d="m183.854 159.288c4.143 0 7.5-3.357 7.5-7.5v-20.04c0-4.143-3.357-7.5-7.5-7.5s-7.5 3.357-7.5 7.5v20.04c0 4.143 3.358 7.5 7.5 7.5z"/><path d="m216.436 203.894c0 4.143 3.357 7.5 7.5 7.5s7.5-3.357 7.5-7.5v-20.041c0-4.143-3.357-7.5-7.5-7.5s-7.5 3.357-7.5 7.5z"/><path d="m96.193 203.894c0 4.143 3.357 7.5 7.5 7.5s7.5-3.357 7.5-7.5v-20.041c0-4.143-3.357-7.5-7.5-7.5s-7.5 3.357-7.5 7.5z"/><path d="m136.274 203.894c0 4.143 3.357 7.5 7.5 7.5s7.5-3.357 7.5-7.5v-20.041c0-4.143-3.357-7.5-7.5-7.5s-7.5 3.357-7.5 7.5z"/><path d="m176.354 203.894c0 4.143 3.357 7.5 7.5 7.5s7.5-3.357 7.5-7.5v-20.041c0-4.143-3.357-7.5-7.5-7.5s-7.5 3.357-7.5 7.5z"/><path d="m216.436 255.998c0 4.143 3.357 7.5 7.5 7.5s7.5-3.357 7.5-7.5v-20.04c0-4.143-3.357-7.5-7.5-7.5s-7.5 3.357-7.5 7.5z"/><path d="m96.193 255.998c0 4.143 3.357 7.5 7.5 7.5s7.5-3.357 7.5-7.5v-20.04c0-4.143-3.357-7.5-7.5-7.5s-7.5 3.357-7.5 7.5z"/><path d="m136.274 255.998c0 4.143 3.357 7.5 7.5 7.5s7.5-3.357 7.5-7.5v-20.04c0-4.143-3.357-7.5-7.5-7.5s-7.5 3.357-7.5 7.5z"/><path d="m176.354 255.998c0 4.143 3.357 7.5 7.5 7.5s7.5-3.357 7.5-7.5v-20.04c0-4.143-3.357-7.5-7.5-7.5s-7.5 3.357-7.5 7.5z"/><path d="m96.193 308.103c0 4.143 3.357 7.5 7.5 7.5s7.5-3.357 7.5-7.5v-20.04c0-4.143-3.357-7.5-7.5-7.5s-7.5 3.357-7.5 7.5z"/><path d="m136.274 308.103c0 4.143 3.357 7.5 7.5 7.5s7.5-3.357 7.5-7.5v-20.04c0-4.143-3.357-7.5-7.5-7.5s-7.5 3.357-7.5 7.5z"/><path d="m96.193 360.208c0 4.143 3.357 7.5 7.5 7.5s7.5-3.357 7.5-7.5v-20.041c0-4.143-3.357-7.5-7.5-7.5s-7.5 3.357-7.5 7.5z"/><path d="m136.274 360.208c0 4.143 3.357 7.5 7.5 7.5s7.5-3.357 7.5-7.5v-20.041c0-4.143-3.357-7.5-7.5-7.5s-7.5 3.357-7.5 7.5z"/><path d="m292.072 176.353c-4.143 0-7.5 3.357-7.5 7.5v20.041c0 4.143 3.357 7.5 7.5 7.5s7.5-3.357 7.5-7.5v-20.041c0-4.143-3.357-7.5-7.5-7.5z"/><path d="m332.153 176.353c-4.143 0-7.5 3.357-7.5 7.5v20.041c0 4.143 3.357 7.5 7.5 7.5s7.5-3.357 7.5-7.5v-20.041c0-4.143-3.357-7.5-7.5-7.5z"/><path d="m372.233 211.394c4.143 0 7.5-3.357 7.5-7.5v-20.041c0-4.143-3.357-7.5-7.5-7.5s-7.5 3.357-7.5 7.5v20.041c0 4.142 3.358 7.5 7.5 7.5z"/><path d="m292.072 228.458c-4.143 0-7.5 3.357-7.5 7.5v20.04c0 4.143 3.357 7.5 7.5 7.5s7.5-3.357 7.5-7.5v-20.04c0-4.143-3.357-7.5-7.5-7.5z"/><path d="m332.153 228.458c-4.143 0-7.5 3.357-7.5 7.5v20.04c0 4.143 3.357 7.5 7.5 7.5s7.5-3.357 7.5-7.5v-20.04c0-4.143-3.357-7.5-7.5-7.5z"/><path d="m372.233 263.498c4.143 0 7.5-3.357 7.5-7.5v-20.04c0-4.143-3.357-7.5-7.5-7.5s-7.5 3.357-7.5 7.5v20.04c0 4.143 3.358 7.5 7.5 7.5z"/><path d="m372.233 315.603c4.143 0 7.5-3.357 7.5-7.5v-20.04c0-4.143-3.357-7.5-7.5-7.5s-7.5 3.357-7.5 7.5v20.04c0 4.142 3.358 7.5 7.5 7.5z"/><path d="m372.233 367.708c4.143 0 7.5-3.357 7.5-7.5v-20.041c0-4.143-3.357-7.5-7.5-7.5s-7.5 3.357-7.5 7.5v20.041c0 4.143 3.358 7.5 7.5 7.5z"/><path d="m256 474.422c4.143 0 7.5-3.357 7.5-7.5v-23.229c3.919-2.488 6.528-6.855 6.528-11.841 0-7.748-6.281-14.028-14.028-14.028s-14.028 6.281-14.028 14.028c0 4.986 2.609 9.353 6.528 11.841v23.229c0 4.142 3.357 7.5 7.5 7.5z"/></g></g></svg>