<svg id="Capa_1" enable-background="new 0 0 512 512" height="512" viewBox="0 0 512 512" width="512" xmlns="http://www.w3.org/2000/svg"><g><path d="m509.07 104.43c-1.86-1.86-4.44-2.93-7.07-2.93h-270v-43c0-5.522-4.477-10-10-10h-172c-5.523 0-10 4.478-10 10v250h-30c-5.523 0-10 4.478-10 10v135c0 5.522 4.477 10 10 10h492c5.523 0 10-4.478 10-10v-151c0-5.521-4.49-10-10-10s-10 4.479-10 10v91h-220v-25h30c5.523 0 10-4.478 10-10v-40c0-5.522-4.477-10-10-10h-70v-187h260v91c0 5.51 4.49 10 10 10 5.52 0 10-4.49 10-10v-101c0-2.63-1.07-5.21-2.93-7.07zm-489.07 224.07h232v115h-20v-85c0-5.522-4.477-10-10-10h-172c-5.523 0-10 4.478-10 10v85h-20zm40 40h66v27.5h-10c-5.523 0-10 4.478-10 10s4.477 10 10 10h10v27.5h-66zm86 75v-27.5h10c5.523 0 10-4.478 10-10s-4.477-10-10-10h-10v-27.5h66v75zm346-30v30h-220v-30zm-200-65h-20v-20h20zm-232-40v-240h152v240z"/><circle cx="502" cy="257.5" r="10"/><path d="m472 157.5c0-5.522-4.477-10-10-10h-40c-5.523 0-10 4.478-10 10v41c0 5.522 4.477 10 10 10h40c5.523 0 10-4.478 10-10zm-20 31h-20v-21h20z"/><path d="m392 157.5c0-5.522-4.477-10-10-10h-40c-5.523 0-10 4.478-10 10v41c0 5.522 4.477 10 10 10h40c5.523 0 10-4.478 10-10zm-20 31h-20v-21h20z"/><path d="m312 157.5c0-5.522-4.477-10-10-10h-40c-5.523 0-10 4.478-10 10v41c0 5.522 4.477 10 10 10h40c5.523 0 10-4.478 10-10zm-20 31h-20v-21h20z"/><path d="m472 238.5c0-5.522-4.477-10-10-10h-40c-5.523 0-10 4.478-10 10v40c0 5.522 4.477 10 10 10h40c5.523 0 10-4.478 10-10zm-20 30h-20v-20h20z"/><path d="m392 238.5c0-5.522-4.477-10-10-10h-40c-5.523 0-10 4.478-10 10v40c0 5.522 4.477 10 10 10h40c5.523 0 10-4.478 10-10zm-20 30h-20v-20h20z"/><path d="m302 228.5h-40c-5.523 0-10 4.478-10 10v40c0 5.522 4.477 10 10 10h40c5.523 0 10-4.478 10-10v-40c0-5.522-4.477-10-10-10zm-10 40h-20v-20h20z"/><path d="m462 308.5h-40c-5.523 0-10 4.478-10 10v40c0 5.522 4.477 10 10 10h40c5.523 0 10-4.478 10-10v-40c0-5.522-4.477-10-10-10zm-10 40h-20v-20h20z"/><path d="m382 308.5h-40c-5.523 0-10 4.478-10 10v40c0 5.522 4.477 10 10 10h40c5.523 0 10-4.478 10-10v-40c0-5.522-4.477-10-10-10zm-10 40h-20v-20h20z"/><path d="m182 101.5h-92c-5.523 0-10 4.478-10 10s4.477 10 10 10h92c5.523 0 10-4.478 10-10s-4.477-10-10-10z"/><path d="m182 141.5h-92c-5.523 0-10 4.478-10 10s4.477 10 10 10h92c5.523 0 10-4.478 10-10s-4.477-10-10-10z"/><path d="m182 181.5h-92c-5.523 0-10 4.478-10 10s4.477 10 10 10h92c5.523 0 10-4.478 10-10s-4.477-10-10-10z"/><path d="m182 221.5h-92c-5.523 0-10 4.478-10 10s4.477 10 10 10h92c5.523 0 10-4.478 10-10s-4.477-10-10-10z"/><path d="m182 261.5h-92c-5.523 0-10 4.478-10 10s4.477 10 10 10h92c5.523 0 10-4.478 10-10s-4.477-10-10-10z"/></g></svg>